<svg width="16" height="16" viewBox="0 0 16 16" fill="none" xmlns="http://www.w3.org/2000/svg">
<path d="M6.71667 9.67533C5.88486 9.43351 5.15403 8.92818 4.63407 8.23534C4.1141 7.5425 3.83311 6.69959 3.83333 5.83333V0.5H11.8333V6.5M3.83333 1.83333H0.5V4.5C0.5 6.17267 1.694 7.16667 3.16667 7.16667H3.83333M13.1893 7.09C14.328 6.82667 15.1667 5.902 15.1667 4.5V1.83333H11.8333M6.5 12.5H3.16667V15.1667H10.8333M10.8333 15.1667C9.68406 15.1667 8.58186 14.7101 7.76921 13.8975C6.95655 13.0848 6.5 11.9826 6.5 10.8333C6.5 9.68406 6.95655 8.58186 7.76921 7.76921C8.58186 6.95655 9.68406 6.5 10.8333 6.5C11.9826 6.5 13.0848 6.95655 13.8975 7.76921C14.7101 8.58186 15.1667 9.68406 15.1667 10.8333C15.1667 11.9826 14.7101 13.0848 13.8975 13.8975C13.0848 14.7101 11.9826 15.1667 10.8333 15.1667ZM13.1667 9.16667L10.1667 12.1667L8.5 10.5M6.63733 10.116C6.1952 10.3379 5.82349 10.6783 5.56377 11.0994C5.30405 11.5204 5.16656 12.0053 5.16667 12.5" stroke="#4F7CF7"/>
</svg>
