<svg width="14" height="15" viewBox="0 0 14 15" fill="none" xmlns="http://www.w3.org/2000/svg">
<path d="M1.92709 12H13.25V0H1.89584C1.39353 0.00161503 0.912254 0.201874 0.557064 0.557064C0.201874 0.912254 0.00161503 1.39353 0 1.89584V12.9453H0.0003438C0.0003438 12.95 0 12.9547 0 12.9595C0 14.0657 0.868188 15.0001 1.89584 15.0001H13.25V14H1.89584C1.427 14 1 13.504 1 12.9594C1 12.4394 1.42453 12 1.92709 12ZM10 1.01041V6.41091L8.4875 5.08309L7 6.40312V1.01041H10ZM6 1V7.75H6.98878L8.49113 6.41691L10.0095 7.75H11V1H12.25V11H3.0025L3 1H6ZM1.89584 1H2L2.00237 11H1.92697C1.60181 11.0001 1.2823 11.085 1 11.2463V1.90366C0.999235 1.66511 1.09312 1.436 1.26107 1.26659C1.42901 1.09718 1.6573 1.00131 1.89584 1Z" fill="#4F7CF7"/>
</svg>
