<svg width="19" height="16" viewBox="0 0 19 16" fill="none" xmlns="http://www.w3.org/2000/svg">
<path d="M7.75 7.5C7.00832 7.5 6.2833 7.28007 5.66661 6.86801C5.04993 6.45596 4.56928 5.87029 4.28545 5.18506C4.00162 4.49984 3.92736 3.74584 4.07206 3.01841C4.21675 2.29098 4.5739 1.6228 5.09835 1.09835C5.6228 0.573904 6.29098 0.216751 7.01841 0.0720569C7.74584 -0.0726377 8.49984 0.00162482 9.18506 0.285453C9.87029 0.569282 10.456 1.04993 10.868 1.66661C11.2801 2.2833 11.5 3.00832 11.5 3.75C11.4974 4.74375 11.1014 5.69605 10.3987 6.39874C9.69604 7.10143 8.74375 7.49736 7.75 7.5ZM7.75 1.5C7.30499 1.5 6.86998 1.63196 6.49997 1.87919C6.12996 2.12643 5.84157 2.47783 5.67127 2.88896C5.50097 3.3001 5.45642 3.7525 5.54323 4.18895C5.63005 4.62541 5.84434 5.02632 6.15901 5.34099C6.47368 5.65566 6.87459 5.86995 7.31105 5.95677C7.7475 6.04359 8.1999 5.99903 8.61104 5.82873C9.02217 5.65843 9.37357 5.37005 9.62081 5.00003C9.86804 4.63002 10 4.19501 10 3.75C10 3.15326 9.76295 2.58097 9.34099 2.15901C8.91903 1.73705 8.34674 1.5 7.75 1.5ZM0.75 14.5C0.551088 14.5 0.360322 14.421 0.21967 14.2803C0.0790178 14.1397 0 13.9489 0 13.75C0 9 5.43 9 7.75 9C8.47 9 9.11 9 9.69 9.07C9.88729 9.08535 10.0705 9.17805 10.1998 9.3279C10.329 9.47775 10.3938 9.6726 10.38 9.87C10.3622 10.0681 10.2673 10.2514 10.1159 10.3804C9.96445 10.5094 9.76846 10.5739 9.57 10.56C9.03 10.56 8.43 10.5 7.75 10.5C2.57 10.5 1.5 11.8 1.5 13.75C1.50135 13.8489 1.48286 13.947 1.44565 14.0386C1.40844 14.1302 1.35324 14.2134 1.28333 14.2833C1.21341 14.3532 1.1302 14.4084 1.0386 14.4457C0.946995 14.4829 0.848864 14.5013 0.75 14.5ZM9.86 15.26C9.66116 15.2598 9.47052 15.1807 9.33 15.04C9.25103 14.9647 9.19019 14.8725 9.15208 14.7703C9.11397 14.6681 9.09958 14.5586 9.11 14.45L9.27 12.53C9.28236 12.3535 9.35674 12.187 9.48 12.06L15 6.54C15.3808 6.18718 15.8808 5.99116 16.4 5.99116C16.9192 5.99116 17.4192 6.18718 17.8 6.54C17.9878 6.72925 18.1358 6.95414 18.2354 7.20143C18.335 7.44872 18.3842 7.71344 18.38 7.98C18.3839 8.22571 18.3391 8.46976 18.2481 8.69804C18.1571 8.92632 18.0218 9.13432 17.85 9.31L12.33 14.83C12.2076 14.9555 12.0446 15.0335 11.87 15.05L9.93 15.23L9.86 15.26ZM10.74 12.92L10.68 13.68L11.46 13.61L16.79 8.28C16.8521 8.20408 16.8841 8.10799 16.88 8.01C16.8788 7.87094 16.8293 7.73662 16.74 7.63C16.6417 7.55694 16.5225 7.51749 16.4 7.51749C16.2775 7.51749 16.1583 7.55694 16.06 7.63L10.74 12.92Z" fill="#4F7CF7"/>
</svg>
