<svg width="20" height="23" viewBox="0 0 20 23" fill="none" xmlns="http://www.w3.org/2000/svg">
<path d="M2.89064 18H19.875V0H2.84377C2.0903 0.00242255 1.36838 0.302811 0.835596 0.835596C0.302811 1.36838 0.00242255 2.0903 0 2.84377V19.418H0.000515699C0.000515699 19.425 0 19.432 0 19.4392C0 21.0986 1.30228 22.5001 2.84377 22.5001H19.875V21H2.84377C2.1405 21 1.5 20.256 1.5 19.4391C1.5 18.6591 2.1368 18 2.89064 18ZM15 1.51561V9.61636L12.7313 7.62464L10.5 9.60469V1.51561H15ZM9 1.5V11.625H10.4832L12.7367 9.62536L15.0143 11.625H16.5V1.5H18.375V16.5H4.50375L4.5 1.5H9ZM2.84377 1.5H3L3.00356 16.5H2.89045C2.40271 16.5001 1.92344 16.6275 1.5 16.8695V2.85548C1.49885 2.49766 1.63969 2.154 1.8916 1.89989C2.14352 1.64577 2.48595 1.50196 2.84377 1.5Z" fill="#4F7CF7"/>
</svg>
