<svg width="15" height="15" viewBox="0 0 15 15" fill="none" xmlns="http://www.w3.org/2000/svg">
<path d="M5.5415 3.56234C5.5415 3.45736 5.58321 3.35667 5.65744 3.28244C5.73167 3.20821 5.83236 3.1665 5.93734 3.1665H9.104C9.20899 3.1665 9.30967 3.20821 9.3839 3.28244C9.45813 3.35667 9.49984 3.45736 9.49984 3.56234C9.49984 3.66732 9.45813 3.768 9.3839 3.84223C9.30967 3.91647 9.20899 3.95817 9.104 3.95817H5.93734C5.83236 3.95817 5.73167 3.91647 5.65744 3.84223C5.58321 3.768 5.5415 3.66732 5.5415 3.56234ZM5.93734 4.74984C5.83236 4.74984 5.73167 4.79154 5.65744 4.86577C5.58321 4.94001 5.5415 5.04069 5.5415 5.14567C5.5415 5.25065 5.58321 5.35133 5.65744 5.42557C5.73167 5.4998 5.83236 5.5415 5.93734 5.5415H9.104C9.20899 5.5415 9.30967 5.4998 9.3839 5.42557C9.45813 5.35133 9.49984 5.25065 9.49984 5.14567C9.49984 5.04069 9.45813 4.94001 9.3839 4.86577C9.30967 4.79154 9.20899 4.74984 9.104 4.74984H5.93734ZM5.5415 8.70817C5.5415 8.60319 5.58321 8.50251 5.65744 8.42827C5.73167 8.35404 5.83236 8.31234 5.93734 8.31234H9.104C9.20899 8.31234 9.30967 8.35404 9.3839 8.42827C9.45813 8.50251 9.49984 8.60319 9.49984 8.70817C9.49984 8.81315 9.45813 8.91383 9.3839 8.98807C9.30967 9.0623 9.20899 9.104 9.104 9.104H5.93734C5.83236 9.104 5.73167 9.0623 5.65744 8.98807C5.58321 8.91383 5.5415 8.81315 5.5415 8.70817ZM5.93734 9.89567C5.83236 9.89567 5.73167 9.93737 5.65744 10.0116C5.58321 10.0858 5.5415 10.1865 5.5415 10.2915C5.5415 10.3965 5.58321 10.4972 5.65744 10.5714C5.73167 10.6456 5.83236 10.6873 5.93734 10.6873H9.104C9.20899 10.6873 9.30967 10.6456 9.3839 10.5714C9.45813 10.4972 9.49984 10.3965 9.49984 10.2915C9.49984 10.1865 9.45813 10.0858 9.3839 10.0116C9.30967 9.93737 9.20899 9.89567 9.104 9.89567H5.93734Z" fill="#4F7CF7"/>
<path fill-rule="evenodd" clip-rule="evenodd" d="M1.5835 8.31234C1.5835 8.20736 1.6252 8.10667 1.69943 8.03244C1.77367 7.95821 1.87435 7.9165 1.97933 7.9165H3.9585C4.06348 7.9165 4.16416 7.95821 4.23839 8.03244C4.31263 8.10667 4.35433 8.20736 4.35433 8.31234V10.2915C4.35433 10.3965 4.31263 10.4972 4.23839 10.5714C4.16416 10.6456 4.06348 10.6873 3.9585 10.6873H1.97933C1.87435 10.6873 1.77367 10.6456 1.69943 10.5714C1.6252 10.4972 1.5835 10.3965 1.5835 10.2915V8.31234ZM2.37516 8.70817V9.89567H3.56266V8.70817H2.37516Z" fill="#4F7CF7"/>
<path d="M4.6342 3.84221C4.70631 3.76755 4.74621 3.66757 4.7453 3.56378C4.7444 3.45999 4.70277 3.36071 4.62938 3.28732C4.55599 3.21393 4.45671 3.1723 4.35292 3.1714C4.24914 3.1705 4.14915 3.2104 4.07449 3.2825L2.77101 4.58598L2.2592 4.07417C2.18455 4.00206 2.08456 3.96217 1.98077 3.96307C1.87699 3.96397 1.77771 4.0056 1.70432 4.07899C1.63093 4.15238 1.5893 4.25166 1.58839 4.35545C1.58749 4.45923 1.62739 4.55922 1.69949 4.63388L2.77101 5.7054L4.6342 3.84221Z" fill="#4F7CF7"/>
<path fill-rule="evenodd" clip-rule="evenodd" d="M1.58333 0C1.16341 0 0.76068 0.166815 0.463748 0.463748C0.166815 0.76068 0 1.16341 0 1.58333V12.6667C0 13.0866 0.166815 13.4893 0.463748 13.7863C0.76068 14.0832 1.16341 14.25 1.58333 14.25H9.5C9.91993 14.25 10.3227 14.0832 10.6196 13.7863C10.9165 13.4893 11.0833 13.0866 11.0833 12.6667V1.58333C11.0833 1.16341 10.9165 0.76068 10.6196 0.463748C10.3227 0.166815 9.91993 0 9.5 0H1.58333ZM0.791667 1.58333C0.791667 1.37337 0.875074 1.17201 1.02354 1.02354C1.17201 0.875074 1.37337 0.791667 1.58333 0.791667H9.5C9.70996 0.791667 9.91133 0.875074 10.0598 1.02354C10.2083 1.17201 10.2917 1.37337 10.2917 1.58333V12.6667C10.2917 12.8766 10.2083 13.078 10.0598 13.2265C9.91133 13.3749 9.70996 13.4583 9.5 13.4583H1.58333C1.37337 13.4583 1.17201 13.3749 1.02354 13.2265C0.875074 13.078 0.791667 12.8766 0.791667 12.6667V1.58333ZM11.875 3.95833C11.875 3.64339 12.0001 3.34134 12.2228 3.11864C12.4455 2.89594 12.7476 2.77083 13.0625 2.77083C13.3774 2.77083 13.6795 2.89594 13.9022 3.11864C14.1249 3.34134 14.25 3.64339 14.25 3.95833V11.9949L13.0625 13.7762L11.875 11.9949V3.95833ZM13.0625 3.5625C12.9575 3.5625 12.8568 3.6042 12.7826 3.67844C12.7084 3.75267 12.6667 3.85335 12.6667 3.95833V4.75H13.4583V3.95833C13.4583 3.85335 13.4166 3.75267 13.3424 3.67844C13.2682 3.6042 13.1675 3.5625 13.0625 3.5625ZM13.0625 12.3488L12.6667 11.7551V5.54167H13.4583V11.7551L13.0625 12.3488Z" fill="#4F7CF7"/>
</svg>
